<svg xmlns="http://www.w3.org/2000/svg" xmlns:xlink="http://www.w3.org/1999/xlink" version="1.1" x="0px" y="0px" viewBox="0 0 100 125" style="enable-background:new 0 0 100 100;" xml:space="preserve"><style type="text/css">
	.st0{fill:none;stroke:#000000;stroke-width:2;stroke-linecap:round;stroke-linejoin:round;stroke-miterlimit:10;}
	.st1{stroke:#000000;stroke-width:0.5;stroke-linecap:round;stroke-linejoin:round;stroke-miterlimit:10;}
	.st2{stroke:#000000;stroke-width:0.25;stroke-linecap:round;stroke-linejoin:round;stroke-miterlimit:10;}
</style><path d="M32.1,38.3c-4,3.6-6.8,8.3-8,13.8h-4.2c-0.6,0-1,0.4-1,1c0,13.7,9.1,25.3,21.5,29.2c-1.1,1.7-1.6,3.6-1.6,5.6  c0,0.6,0.4,1,1,1h19.3c0.6,0,1-0.4,1-1c0-2-0.6-3.9-1.6-5.6C71,78.4,80.1,66.8,80.1,53.1c0-0.6-0.4-1-1-1h-4.2  c-2.5-11.9-13.2-20.5-25.4-20.5c-4.9,0-9.5,1.4-13.4,3.8l-9.6-24.1c-0.2-0.5-0.8-0.8-1.3-0.6c-0.5,0.2-0.8,0.8-0.6,1.3l9.7,24.4  c-0.2,0.2-0.5,0.3-0.7,0.5L18.2,18.7c-0.4-0.4-1-0.5-1.4-0.1c-0.4,0.4-0.5,1-0.1,1.4L32.1,38.3z M40.9,86.9c0.2-1.5,0.7-2.9,1.6-4.1  c2.3,0.5,4.6,0.8,7,0.8c2.4,0,4.8-0.3,7-0.8c0.9,1.2,1.4,2.6,1.6,4.1H40.9z M78.1,54.1c-0.5,15.3-13.1,27.6-28.5,27.6  S21.5,69.4,21,54.1H78.1z M35.1,38.4l3.8,9.5c0.2,0.4,0.5,0.6,0.9,0.6c0.1,0,0.2,0,0.4-0.1c0.5-0.2,0.8-0.8,0.6-1.3l-3.9-9.9  c3.7-2.3,8.1-3.7,12.7-3.7c11.1,0,20.8,7.7,23.3,18.5H26.2C27.5,46.5,30.7,41.7,35.1,38.4z"/><text x="0" y="115" fill="#000000" font-size="5px" font-weight="bold" font-family="'Helvetica Neue', Helvetica, Arial-Unicode, Arial, Sans-serif"></text><text x="0" y="120" fill="#000000" font-size="5px" font-weight="bold" font-family="'Helvetica Neue', Helvetica, Arial-Unicode, Arial, Sans-serif"></text></svg>
